<svg version="1" xmlns="http://www.w3.org/2000/svg" width="682.667" height="682.667" viewBox="0 0 512.000000 512.000000"><path d="M237.9.4c-.2.2-4 .6-8.3 1-4.4.4-8.2.8-8.5 1-.3.2-3.1.7-6.1 1.1-3 .3-7.5 1.1-10 1.7-2.5.5-5.6 1.2-7 1.4-5.2 1-23.6 6.6-32.6 10C124.2 32 82.8 62 57 95c-1.9 2.5-3.7 4.7-4 5-.7.7-4.5 6.1-10.5 15-17.6 26-31.2 58.9-37.4 90.5-4 20-4.6 26.7-4.5 51.5 0 18.3.3 24.1 1.9 34.5.3 1.6.7 4.3.9 6 3.7 26.5 16.5 62.3 30.7 86 1 1.6 2.7 4.6 3.8 6.5 1.9 3.6 13.1 19.5 16.6 23.9 26 31.8 53.4 54.2 86.6 70.7 23.9 12 42.1 18 72.4 23.9 18.9 3.7 58.8 4.3 79 1.1 94.6-14.6 171.6-77.1 204-165.7 10.7-29.2 14.9-53.9 15-87.4 0-16.6-.6-28.5-1.9-36-.3-1.7-.8-4.4-1-6-.3-1.7-.9-5.3-1.5-8-.6-2.8-1.3-6.1-1.5-7.5-3.1-15.6-11.5-38.9-20.6-57.2C451.5 74.7 389.6 25.1 317 7.4c-5.8-1.4-11.6-2.8-13-3-7-1.1-8.5-1.4-19.5-3-4.4-.6-46-1.5-46.6-1z"/></svg>